<svg xmlns="http://www.w3.org/2000/svg" width="30.000000pt" height="30.000000pt" viewBox="0 0 30.000000 30.000000" preserveAspectRatio="xMidYMid meet"><g transform="translate(0.000000,30.000000) scale(0.100000,-0.100000)" fill="#ff5c00" stroke="none"><path d="M40 209 l-33 -41 72 -71 71 -72 71 72 72 71 -33 41 -33 41 -77 0 -77 0 -33 -41z m80 6 c-7 -8 -14 -15 -15 -15 -2 0 -5 7 -9 15 -4 10 1 15 16 15 17 0 18 -2 8 -15z m84 0 c-5 -12 -10 -13 -20 -4 -19 15 -18 19 6 19 13 0 18 -5 14 -15z m-36 -15 c11 -18 10 -20 -18 -20 -28 0 -29 2 -18 20 7 11 15 20 18 20 3 0 11 -9 18 -20z m-84 -5 c4 -10 -1 -15 -14 -15 -20 0 -26 11 -13 23 10 11 20 8 27 -8z m164 -3 c2 -7 -5 -12 -17 -12 -14 0 -19 5 -14 15 6 17 25 15 31 -3z m-141 -67 c6 -19 10 -35 9 -35 -1 0 -17 16 -36 35 l-34 35 25 0 c21 0 28 -7 36 -35z m73 28 c0 -14 -24 -73 -30 -73 -6 0 -30 59 -30 73 0 4 14 7 30 7 17 0 30 -3 30 -7z m70 4 c0 -2 -16 -18 -35 -37 l-34 -33 11 36 c9 29 17 37 35 37 13 0 23 -1 23 -3z"></path></g></svg>